<svg xmlns="http://www.w3.org/2000/svg" viewBox="0 0 16 16" width="16" height="16"><rect width="16" height="16" rx="3" fill="#00a1d6"/><path fill="#f6f8fa" d="M4.6 2.3a.75.75 0 0 1 1.06 0L7.1 3.75h1.8L10.34 2.3a.75.75 0 1 1 1.06 1.06l-.4.39H12A1.75 1.75 0 0 1 13.75 5.5v5A1.75 1.75 0 0 1 12 12.25H4A1.75 1.75 0 0 1 2.25 10.5v-5A1.75 1.75 0 0 1 4 3.75h.94l-.34-.39a.75.75 0 0 1 0-1.06ZM4 5.25a.25.25 0 0 0-.25.25v5c0 .14.11.25.25.25h8a.25.25 0 0 0 .25-.25v-5a.25.25 0 0 0-.25-.25Zm1.5 1.75a.75.75 0 0 1 .75.75v.5a.75.75 0 0 1-1.5 0v-.5a.75.75 0 0 1 .75-.75Zm5 0a.75.75 0 0 1 .75.75v.5a.75.75 0 0 1-1.5 0v-.5a.75.75 0 0 1 .75-.75Z"/></svg>
